<mxfile host="Electron" modified="2024-09-20T13:30:32.706Z" agent="Mozilla/5.0 (Windows NT 10.0; Win64; x64) AppleWebKit/537.36 (KHTML, like Gecko) draw.io/24.6.4 Chrome/124.0.6367.207 Electron/30.0.6 Safari/537.36" etag="DVGRMX1dBjyEIOAhrIui" version="24.6.4" type="device">
  <diagram name="Страница — 1" id="zjySz6PzMCHwVWiWCfYt">
    <mxGraphModel dx="531" dy="636" grid="1" gridSize="10" guides="1" tooltips="1" connect="1" arrows="1" fold="1" page="1" pageScale="1" pageWidth="827" pageHeight="1169" math="0" shadow="0">
      <root>
        <mxCell id="0" />
        <mxCell id="1" parent="0" />
        <mxCell id="Z2BE-C4bj-5tcC9fpLzT-1" value="S" style="text;html=1;align=center;verticalAlign=middle;whiteSpace=wrap;rounded=0;" parent="1" vertex="1">
          <mxGeometry x="430" y="60" width="60" height="30" as="geometry" />
        </mxCell>
        <mxCell id="Z2BE-C4bj-5tcC9fpLzT-2" value="c" style="text;html=1;align=center;verticalAlign=middle;whiteSpace=wrap;rounded=0;" parent="1" vertex="1">
          <mxGeometry x="180" y="150" width="60" height="30" as="geometry" />
        </mxCell>
        <mxCell id="Z2BE-C4bj-5tcC9fpLzT-3" value="A" style="text;html=1;align=center;verticalAlign=middle;whiteSpace=wrap;rounded=0;" parent="1" vertex="1">
          <mxGeometry x="270" y="150" width="60" height="30" as="geometry" />
        </mxCell>
        <mxCell id="Z2BE-C4bj-5tcC9fpLzT-4" value="B" style="text;html=1;align=center;verticalAlign=middle;whiteSpace=wrap;rounded=0;" parent="1" vertex="1">
          <mxGeometry x="250" y="200" width="60" height="30" as="geometry" />
        </mxCell>
        <mxCell id="Z2BE-C4bj-5tcC9fpLzT-5" value="a" style="text;html=1;align=center;verticalAlign=middle;whiteSpace=wrap;rounded=0;" parent="1" vertex="1">
          <mxGeometry x="340" y="200" width="60" height="30" as="geometry" />
        </mxCell>
        <mxCell id="Z2BE-C4bj-5tcC9fpLzT-6" value="e" style="text;html=1;align=center;verticalAlign=middle;whiteSpace=wrap;rounded=0;" parent="1" vertex="1">
          <mxGeometry x="470" y="320" width="60" height="30" as="geometry" />
        </mxCell>
        <mxCell id="Z2BE-C4bj-5tcC9fpLzT-7" value="b" style="text;html=1;align=center;verticalAlign=middle;whiteSpace=wrap;rounded=0;" parent="1" vertex="1">
          <mxGeometry x="250" y="270" width="60" height="30" as="geometry" />
        </mxCell>
        <mxCell id="Z2BE-C4bj-5tcC9fpLzT-8" value="B" style="text;html=1;align=center;verticalAlign=middle;whiteSpace=wrap;rounded=0;" parent="1" vertex="1">
          <mxGeometry x="430" y="200" width="60" height="30" as="geometry" />
        </mxCell>
        <mxCell id="Z2BE-C4bj-5tcC9fpLzT-9" value="a" style="text;html=1;align=center;verticalAlign=middle;whiteSpace=wrap;rounded=0;" parent="1" vertex="1">
          <mxGeometry x="400" y="260" width="60" height="30" as="geometry" />
        </mxCell>
        <mxCell id="Z2BE-C4bj-5tcC9fpLzT-10" value="A" style="text;html=1;align=center;verticalAlign=middle;whiteSpace=wrap;rounded=0;" parent="1" vertex="1">
          <mxGeometry x="470" y="260" width="60" height="30" as="geometry" />
        </mxCell>
        <mxCell id="Z2BE-C4bj-5tcC9fpLzT-11" value="b" style="text;html=1;align=center;verticalAlign=middle;whiteSpace=wrap;rounded=0;" parent="1" vertex="1">
          <mxGeometry x="540" y="150" width="60" height="30" as="geometry" />
        </mxCell>
        <mxCell id="Z2BE-C4bj-5tcC9fpLzT-12" value="e" style="text;html=1;align=center;verticalAlign=middle;whiteSpace=wrap;rounded=0;" parent="1" vertex="1">
          <mxGeometry x="640" y="210" width="60" height="30" as="geometry" />
        </mxCell>
        <mxCell id="Z2BE-C4bj-5tcC9fpLzT-13" value="A" style="text;html=1;align=center;verticalAlign=middle;whiteSpace=wrap;rounded=0;" parent="1" vertex="1">
          <mxGeometry x="640" y="150" width="60" height="30" as="geometry" />
        </mxCell>
        <mxCell id="Z2BE-C4bj-5tcC9fpLzT-14" value="" style="endArrow=none;html=1;rounded=0;entryX=0.5;entryY=1;entryDx=0;entryDy=0;" parent="1" source="Z2BE-C4bj-5tcC9fpLzT-2" target="Z2BE-C4bj-5tcC9fpLzT-1" edge="1">
          <mxGeometry width="50" height="50" relative="1" as="geometry">
            <mxPoint x="350" y="120" as="sourcePoint" />
            <mxPoint x="400" y="70" as="targetPoint" />
          </mxGeometry>
        </mxCell>
        <mxCell id="Z2BE-C4bj-5tcC9fpLzT-15" value="" style="endArrow=none;html=1;rounded=0;entryX=0.5;entryY=1;entryDx=0;entryDy=0;" parent="1" source="Z2BE-C4bj-5tcC9fpLzT-3" target="Z2BE-C4bj-5tcC9fpLzT-1" edge="1">
          <mxGeometry width="50" height="50" relative="1" as="geometry">
            <mxPoint x="480" y="140" as="sourcePoint" />
            <mxPoint x="430" y="120" as="targetPoint" />
            <Array as="points" />
          </mxGeometry>
        </mxCell>
        <mxCell id="Z2BE-C4bj-5tcC9fpLzT-16" value="" style="endArrow=none;html=1;rounded=0;exitX=0.5;exitY=1;exitDx=0;exitDy=0;" parent="1" source="Z2BE-C4bj-5tcC9fpLzT-1" target="Z2BE-C4bj-5tcC9fpLzT-11" edge="1">
          <mxGeometry width="50" height="50" relative="1" as="geometry">
            <mxPoint x="460" y="300" as="sourcePoint" />
            <mxPoint x="510" y="250" as="targetPoint" />
          </mxGeometry>
        </mxCell>
        <mxCell id="Z2BE-C4bj-5tcC9fpLzT-18" value="" style="endArrow=none;html=1;rounded=0;exitX=0.5;exitY=1;exitDx=0;exitDy=0;" parent="1" source="Z2BE-C4bj-5tcC9fpLzT-1" target="Z2BE-C4bj-5tcC9fpLzT-13" edge="1">
          <mxGeometry width="50" height="50" relative="1" as="geometry">
            <mxPoint x="580" y="60" as="sourcePoint" />
            <mxPoint x="630" y="10" as="targetPoint" />
          </mxGeometry>
        </mxCell>
        <mxCell id="Z2BE-C4bj-5tcC9fpLzT-19" value="" style="endArrow=none;html=1;rounded=0;entryX=0.5;entryY=1;entryDx=0;entryDy=0;" parent="1" source="Z2BE-C4bj-5tcC9fpLzT-4" target="Z2BE-C4bj-5tcC9fpLzT-3" edge="1">
          <mxGeometry width="50" height="50" relative="1" as="geometry">
            <mxPoint x="490" y="330" as="sourcePoint" />
            <mxPoint x="540" y="280" as="targetPoint" />
          </mxGeometry>
        </mxCell>
        <mxCell id="Z2BE-C4bj-5tcC9fpLzT-20" value="" style="endArrow=none;html=1;rounded=0;exitX=0.5;exitY=1;exitDx=0;exitDy=0;" parent="1" source="Z2BE-C4bj-5tcC9fpLzT-3" target="Z2BE-C4bj-5tcC9fpLzT-5" edge="1">
          <mxGeometry width="50" height="50" relative="1" as="geometry">
            <mxPoint x="410" y="190" as="sourcePoint" />
            <mxPoint x="460" y="140" as="targetPoint" />
          </mxGeometry>
        </mxCell>
        <mxCell id="Z2BE-C4bj-5tcC9fpLzT-21" value="" style="endArrow=none;html=1;rounded=0;" parent="1" source="Z2BE-C4bj-5tcC9fpLzT-8" edge="1">
          <mxGeometry width="50" height="50" relative="1" as="geometry">
            <mxPoint x="510" y="350" as="sourcePoint" />
            <mxPoint x="300" y="180" as="targetPoint" />
          </mxGeometry>
        </mxCell>
        <mxCell id="Z2BE-C4bj-5tcC9fpLzT-22" value="" style="endArrow=none;html=1;rounded=0;entryX=0.5;entryY=1;entryDx=0;entryDy=0;" parent="1" source="Z2BE-C4bj-5tcC9fpLzT-9" target="Z2BE-C4bj-5tcC9fpLzT-8" edge="1">
          <mxGeometry width="50" height="50" relative="1" as="geometry">
            <mxPoint x="630" y="370" as="sourcePoint" />
            <mxPoint x="680" y="320" as="targetPoint" />
          </mxGeometry>
        </mxCell>
        <mxCell id="Z2BE-C4bj-5tcC9fpLzT-23" value="" style="endArrow=none;html=1;rounded=0;entryX=0.5;entryY=1;entryDx=0;entryDy=0;" parent="1" source="Z2BE-C4bj-5tcC9fpLzT-10" target="Z2BE-C4bj-5tcC9fpLzT-8" edge="1">
          <mxGeometry width="50" height="50" relative="1" as="geometry">
            <mxPoint x="620" y="350" as="sourcePoint" />
            <mxPoint x="670" y="300" as="targetPoint" />
          </mxGeometry>
        </mxCell>
        <mxCell id="Z2BE-C4bj-5tcC9fpLzT-24" value="" style="endArrow=none;html=1;rounded=0;entryX=0.5;entryY=1;entryDx=0;entryDy=0;" parent="1" source="Z2BE-C4bj-5tcC9fpLzT-6" target="Z2BE-C4bj-5tcC9fpLzT-10" edge="1">
          <mxGeometry width="50" height="50" relative="1" as="geometry">
            <mxPoint x="540" y="380" as="sourcePoint" />
            <mxPoint x="590" y="330" as="targetPoint" />
          </mxGeometry>
        </mxCell>
        <mxCell id="Z2BE-C4bj-5tcC9fpLzT-25" value="" style="endArrow=none;html=1;rounded=0;entryX=0.5;entryY=1;entryDx=0;entryDy=0;" parent="1" source="Z2BE-C4bj-5tcC9fpLzT-12" target="Z2BE-C4bj-5tcC9fpLzT-13" edge="1">
          <mxGeometry width="50" height="50" relative="1" as="geometry">
            <mxPoint x="450" y="230" as="sourcePoint" />
            <mxPoint x="500" y="180" as="targetPoint" />
          </mxGeometry>
        </mxCell>
        <mxCell id="Z2BE-C4bj-5tcC9fpLzT-26" value="" style="endArrow=none;html=1;rounded=0;exitX=0.5;exitY=1;exitDx=0;exitDy=0;" parent="1" source="Z2BE-C4bj-5tcC9fpLzT-4" target="Z2BE-C4bj-5tcC9fpLzT-7" edge="1">
          <mxGeometry width="50" height="50" relative="1" as="geometry">
            <mxPoint x="680" y="220" as="sourcePoint" />
            <mxPoint x="680" y="190" as="targetPoint" />
          </mxGeometry>
        </mxCell>
        <mxCell id="BlORxZARwnKNtg3xOU0B-2" value="S" style="text;html=1;align=center;verticalAlign=middle;whiteSpace=wrap;rounded=0;" vertex="1" parent="1">
          <mxGeometry x="434" y="470" width="60" height="30" as="geometry" />
        </mxCell>
        <mxCell id="BlORxZARwnKNtg3xOU0B-3" value="A" style="text;html=1;align=center;verticalAlign=middle;whiteSpace=wrap;rounded=0;" vertex="1" parent="1">
          <mxGeometry x="274" y="560" width="60" height="30" as="geometry" />
        </mxCell>
        <mxCell id="BlORxZARwnKNtg3xOU0B-4" value="a" style="text;html=1;align=center;verticalAlign=middle;whiteSpace=wrap;rounded=0;" vertex="1" parent="1">
          <mxGeometry x="344" y="610" width="60" height="30" as="geometry" />
        </mxCell>
        <mxCell id="BlORxZARwnKNtg3xOU0B-5" value="B" style="text;html=1;align=center;verticalAlign=middle;whiteSpace=wrap;rounded=0;" vertex="1" parent="1">
          <mxGeometry x="434" y="610" width="60" height="30" as="geometry" />
        </mxCell>
        <mxCell id="BlORxZARwnKNtg3xOU0B-6" value="" style="endArrow=none;html=1;rounded=0;entryX=0.5;entryY=1;entryDx=0;entryDy=0;" edge="1" parent="1" source="BlORxZARwnKNtg3xOU0B-3" target="BlORxZARwnKNtg3xOU0B-2">
          <mxGeometry width="50" height="50" relative="1" as="geometry">
            <mxPoint x="484" y="550" as="sourcePoint" />
            <mxPoint x="434" y="530" as="targetPoint" />
            <Array as="points" />
          </mxGeometry>
        </mxCell>
        <mxCell id="BlORxZARwnKNtg3xOU0B-7" value="" style="endArrow=none;html=1;rounded=0;exitX=0.5;exitY=1;exitDx=0;exitDy=0;" edge="1" parent="1" source="BlORxZARwnKNtg3xOU0B-2" target="BlORxZARwnKNtg3xOU0B-12">
          <mxGeometry width="50" height="50" relative="1" as="geometry">
            <mxPoint x="464" y="710" as="sourcePoint" />
            <mxPoint x="510" y="540" as="targetPoint" />
          </mxGeometry>
        </mxCell>
        <mxCell id="BlORxZARwnKNtg3xOU0B-8" value="" style="endArrow=none;html=1;rounded=0;entryX=0.5;entryY=1;entryDx=0;entryDy=0;" edge="1" parent="1" target="BlORxZARwnKNtg3xOU0B-3" source="BlORxZARwnKNtg3xOU0B-16">
          <mxGeometry width="50" height="50" relative="1" as="geometry">
            <mxPoint x="296" y="610" as="sourcePoint" />
            <mxPoint x="544" y="690" as="targetPoint" />
            <Array as="points" />
          </mxGeometry>
        </mxCell>
        <mxCell id="BlORxZARwnKNtg3xOU0B-9" value="" style="endArrow=none;html=1;rounded=0;exitX=0.5;exitY=1;exitDx=0;exitDy=0;" edge="1" parent="1" source="BlORxZARwnKNtg3xOU0B-3" target="BlORxZARwnKNtg3xOU0B-4">
          <mxGeometry width="50" height="50" relative="1" as="geometry">
            <mxPoint x="414" y="600" as="sourcePoint" />
            <mxPoint x="464" y="550" as="targetPoint" />
          </mxGeometry>
        </mxCell>
        <mxCell id="BlORxZARwnKNtg3xOU0B-10" value="" style="endArrow=none;html=1;rounded=0;" edge="1" parent="1" source="BlORxZARwnKNtg3xOU0B-5">
          <mxGeometry width="50" height="50" relative="1" as="geometry">
            <mxPoint x="514" y="760" as="sourcePoint" />
            <mxPoint x="304" y="590" as="targetPoint" />
          </mxGeometry>
        </mxCell>
        <mxCell id="BlORxZARwnKNtg3xOU0B-12" value="b" style="text;html=1;align=center;verticalAlign=middle;whiteSpace=wrap;rounded=0;" vertex="1" parent="1">
          <mxGeometry x="494" y="560" width="60" height="30" as="geometry" />
        </mxCell>
        <mxCell id="BlORxZARwnKNtg3xOU0B-13" value="a" style="text;html=1;align=center;verticalAlign=middle;whiteSpace=wrap;rounded=0;" vertex="1" parent="1">
          <mxGeometry x="560" y="560" width="60" height="30" as="geometry" />
        </mxCell>
        <mxCell id="BlORxZARwnKNtg3xOU0B-14" value="" style="endArrow=none;html=1;rounded=0;exitX=0.5;exitY=1;exitDx=0;exitDy=0;" edge="1" parent="1" source="BlORxZARwnKNtg3xOU0B-2" target="BlORxZARwnKNtg3xOU0B-13">
          <mxGeometry width="50" height="50" relative="1" as="geometry">
            <mxPoint x="474" y="510" as="sourcePoint" />
            <mxPoint x="522" y="570" as="targetPoint" />
          </mxGeometry>
        </mxCell>
        <mxCell id="BlORxZARwnKNtg3xOU0B-16" value="B" style="text;html=1;align=center;verticalAlign=middle;whiteSpace=wrap;rounded=0;" vertex="1" parent="1">
          <mxGeometry x="234" y="610" width="60" height="30" as="geometry" />
        </mxCell>
        <mxCell id="BlORxZARwnKNtg3xOU0B-17" value="a" style="text;html=1;align=center;verticalAlign=middle;whiteSpace=wrap;rounded=0;" vertex="1" parent="1">
          <mxGeometry x="204" y="670" width="60" height="30" as="geometry" />
        </mxCell>
        <mxCell id="BlORxZARwnKNtg3xOU0B-18" value="A" style="text;html=1;align=center;verticalAlign=middle;whiteSpace=wrap;rounded=0;" vertex="1" parent="1">
          <mxGeometry x="274" y="670" width="60" height="30" as="geometry" />
        </mxCell>
        <mxCell id="BlORxZARwnKNtg3xOU0B-19" value="" style="endArrow=none;html=1;rounded=0;entryX=0.5;entryY=1;entryDx=0;entryDy=0;" edge="1" parent="1" source="BlORxZARwnKNtg3xOU0B-17" target="BlORxZARwnKNtg3xOU0B-16">
          <mxGeometry width="50" height="50" relative="1" as="geometry">
            <mxPoint x="434" y="780" as="sourcePoint" />
            <mxPoint x="484" y="730" as="targetPoint" />
          </mxGeometry>
        </mxCell>
        <mxCell id="BlORxZARwnKNtg3xOU0B-20" value="" style="endArrow=none;html=1;rounded=0;entryX=0.5;entryY=1;entryDx=0;entryDy=0;" edge="1" parent="1" source="BlORxZARwnKNtg3xOU0B-18" target="BlORxZARwnKNtg3xOU0B-16">
          <mxGeometry width="50" height="50" relative="1" as="geometry">
            <mxPoint x="424" y="760" as="sourcePoint" />
            <mxPoint x="474" y="710" as="targetPoint" />
          </mxGeometry>
        </mxCell>
        <mxCell id="BlORxZARwnKNtg3xOU0B-22" value="A" style="text;html=1;align=center;verticalAlign=middle;whiteSpace=wrap;rounded=0;" vertex="1" parent="1">
          <mxGeometry x="474" y="670" width="60" height="30" as="geometry" />
        </mxCell>
        <mxCell id="BlORxZARwnKNtg3xOU0B-23" value="a" style="text;html=1;align=center;verticalAlign=middle;whiteSpace=wrap;rounded=0;" vertex="1" parent="1">
          <mxGeometry x="544" y="720" width="60" height="30" as="geometry" />
        </mxCell>
        <mxCell id="BlORxZARwnKNtg3xOU0B-24" value="B" style="text;html=1;align=center;verticalAlign=middle;whiteSpace=wrap;rounded=0;" vertex="1" parent="1">
          <mxGeometry x="634" y="720" width="60" height="30" as="geometry" />
        </mxCell>
        <mxCell id="BlORxZARwnKNtg3xOU0B-25" value="" style="endArrow=none;html=1;rounded=0;entryX=0.5;entryY=1;entryDx=0;entryDy=0;" edge="1" parent="1" source="BlORxZARwnKNtg3xOU0B-30" target="BlORxZARwnKNtg3xOU0B-22">
          <mxGeometry width="50" height="50" relative="1" as="geometry">
            <mxPoint x="496" y="720" as="sourcePoint" />
            <mxPoint x="744" y="800" as="targetPoint" />
            <Array as="points" />
          </mxGeometry>
        </mxCell>
        <mxCell id="BlORxZARwnKNtg3xOU0B-26" value="" style="endArrow=none;html=1;rounded=0;exitX=0.5;exitY=1;exitDx=0;exitDy=0;" edge="1" parent="1" source="BlORxZARwnKNtg3xOU0B-22" target="BlORxZARwnKNtg3xOU0B-23">
          <mxGeometry width="50" height="50" relative="1" as="geometry">
            <mxPoint x="614" y="710" as="sourcePoint" />
            <mxPoint x="664" y="660" as="targetPoint" />
          </mxGeometry>
        </mxCell>
        <mxCell id="BlORxZARwnKNtg3xOU0B-27" value="" style="endArrow=none;html=1;rounded=0;" edge="1" parent="1" source="BlORxZARwnKNtg3xOU0B-24">
          <mxGeometry width="50" height="50" relative="1" as="geometry">
            <mxPoint x="714" y="870" as="sourcePoint" />
            <mxPoint x="504" y="700" as="targetPoint" />
          </mxGeometry>
        </mxCell>
        <mxCell id="BlORxZARwnKNtg3xOU0B-29" value="e" style="text;html=1;align=center;verticalAlign=middle;whiteSpace=wrap;rounded=0;" vertex="1" parent="1">
          <mxGeometry x="474" y="840" width="60" height="30" as="geometry" />
        </mxCell>
        <mxCell id="BlORxZARwnKNtg3xOU0B-30" value="B" style="text;html=1;align=center;verticalAlign=middle;whiteSpace=wrap;rounded=0;" vertex="1" parent="1">
          <mxGeometry x="434" y="720" width="60" height="30" as="geometry" />
        </mxCell>
        <mxCell id="BlORxZARwnKNtg3xOU0B-31" value="A" style="text;html=1;align=center;verticalAlign=middle;whiteSpace=wrap;rounded=0;" vertex="1" parent="1">
          <mxGeometry x="474" y="780" width="60" height="30" as="geometry" />
        </mxCell>
        <mxCell id="BlORxZARwnKNtg3xOU0B-32" value="" style="endArrow=none;html=1;rounded=0;entryX=0.5;entryY=1;entryDx=0;entryDy=0;" edge="1" parent="1" target="BlORxZARwnKNtg3xOU0B-30" source="BlORxZARwnKNtg3xOU0B-36">
          <mxGeometry width="50" height="50" relative="1" as="geometry">
            <mxPoint x="444" y="780" as="sourcePoint" />
            <mxPoint x="684" y="840" as="targetPoint" />
          </mxGeometry>
        </mxCell>
        <mxCell id="BlORxZARwnKNtg3xOU0B-33" value="" style="endArrow=none;html=1;rounded=0;entryX=0.5;entryY=1;entryDx=0;entryDy=0;" edge="1" parent="1" source="BlORxZARwnKNtg3xOU0B-31" target="BlORxZARwnKNtg3xOU0B-30">
          <mxGeometry width="50" height="50" relative="1" as="geometry">
            <mxPoint x="624" y="870" as="sourcePoint" />
            <mxPoint x="674" y="820" as="targetPoint" />
          </mxGeometry>
        </mxCell>
        <mxCell id="BlORxZARwnKNtg3xOU0B-34" value="" style="endArrow=none;html=1;rounded=0;entryX=0.5;entryY=1;entryDx=0;entryDy=0;" edge="1" parent="1" source="BlORxZARwnKNtg3xOU0B-29" target="BlORxZARwnKNtg3xOU0B-31">
          <mxGeometry width="50" height="50" relative="1" as="geometry">
            <mxPoint x="544" y="900" as="sourcePoint" />
            <mxPoint x="594" y="850" as="targetPoint" />
          </mxGeometry>
        </mxCell>
        <mxCell id="BlORxZARwnKNtg3xOU0B-35" value="a" style="text;html=1;align=center;verticalAlign=middle;whiteSpace=wrap;rounded=0;" vertex="1" parent="1">
          <mxGeometry x="390" y="670" width="60" height="30" as="geometry" />
        </mxCell>
        <mxCell id="BlORxZARwnKNtg3xOU0B-36" value="a" style="text;html=1;align=center;verticalAlign=middle;whiteSpace=wrap;rounded=0;" vertex="1" parent="1">
          <mxGeometry x="404" y="780" width="60" height="30" as="geometry" />
        </mxCell>
        <mxCell id="BlORxZARwnKNtg3xOU0B-37" value="" style="endArrow=none;html=1;rounded=0;" edge="1" parent="1" source="BlORxZARwnKNtg3xOU0B-35">
          <mxGeometry width="50" height="50" relative="1" as="geometry">
            <mxPoint x="454" y="790" as="sourcePoint" />
            <mxPoint x="464" y="640" as="targetPoint" />
          </mxGeometry>
        </mxCell>
        <mxCell id="BlORxZARwnKNtg3xOU0B-38" value="" style="endArrow=none;html=1;rounded=0;entryX=0.5;entryY=1;entryDx=0;entryDy=0;" edge="1" parent="1" source="BlORxZARwnKNtg3xOU0B-22" target="BlORxZARwnKNtg3xOU0B-5">
          <mxGeometry width="50" height="50" relative="1" as="geometry">
            <mxPoint x="441" y="680" as="sourcePoint" />
            <mxPoint x="463" y="650" as="targetPoint" />
          </mxGeometry>
        </mxCell>
        <mxCell id="BlORxZARwnKNtg3xOU0B-65" value="e" style="text;html=1;align=center;verticalAlign=middle;whiteSpace=wrap;rounded=0;" vertex="1" parent="1">
          <mxGeometry x="674" y="840" width="60" height="30" as="geometry" />
        </mxCell>
        <mxCell id="BlORxZARwnKNtg3xOU0B-66" value="A" style="text;html=1;align=center;verticalAlign=middle;whiteSpace=wrap;rounded=0;" vertex="1" parent="1">
          <mxGeometry x="674" y="780" width="60" height="30" as="geometry" />
        </mxCell>
        <mxCell id="BlORxZARwnKNtg3xOU0B-67" value="" style="endArrow=none;html=1;rounded=0;entryX=0.5;entryY=1;entryDx=0;entryDy=0;" edge="1" parent="1" source="BlORxZARwnKNtg3xOU0B-70">
          <mxGeometry width="50" height="50" relative="1" as="geometry">
            <mxPoint x="644" y="780" as="sourcePoint" />
            <mxPoint x="664" y="750" as="targetPoint" />
          </mxGeometry>
        </mxCell>
        <mxCell id="BlORxZARwnKNtg3xOU0B-68" value="" style="endArrow=none;html=1;rounded=0;entryX=0.5;entryY=1;entryDx=0;entryDy=0;" edge="1" parent="1" source="BlORxZARwnKNtg3xOU0B-66">
          <mxGeometry width="50" height="50" relative="1" as="geometry">
            <mxPoint x="824" y="870" as="sourcePoint" />
            <mxPoint x="664" y="750" as="targetPoint" />
          </mxGeometry>
        </mxCell>
        <mxCell id="BlORxZARwnKNtg3xOU0B-69" value="" style="endArrow=none;html=1;rounded=0;entryX=0.5;entryY=1;entryDx=0;entryDy=0;" edge="1" parent="1" source="BlORxZARwnKNtg3xOU0B-65" target="BlORxZARwnKNtg3xOU0B-66">
          <mxGeometry width="50" height="50" relative="1" as="geometry">
            <mxPoint x="744" y="900" as="sourcePoint" />
            <mxPoint x="794" y="850" as="targetPoint" />
          </mxGeometry>
        </mxCell>
        <mxCell id="BlORxZARwnKNtg3xOU0B-70" value="a" style="text;html=1;align=center;verticalAlign=middle;whiteSpace=wrap;rounded=0;" vertex="1" parent="1">
          <mxGeometry x="604" y="780" width="60" height="30" as="geometry" />
        </mxCell>
        <mxCell id="BlORxZARwnKNtg3xOU0B-71" value="e" style="text;html=1;align=center;verticalAlign=middle;whiteSpace=wrap;rounded=0;" vertex="1" parent="1">
          <mxGeometry x="274" y="735" width="60" height="30" as="geometry" />
        </mxCell>
        <mxCell id="BlORxZARwnKNtg3xOU0B-72" value="" style="endArrow=none;html=1;rounded=0;entryX=0.5;entryY=1;entryDx=0;entryDy=0;" edge="1" parent="1" source="BlORxZARwnKNtg3xOU0B-71">
          <mxGeometry width="50" height="50" relative="1" as="geometry">
            <mxPoint x="344" y="795" as="sourcePoint" />
            <mxPoint x="304" y="705" as="targetPoint" />
          </mxGeometry>
        </mxCell>
      </root>
    </mxGraphModel>
  </diagram>
</mxfile>
